<svg data-name="Layer 1" xmlns="http://www.w3.org/2000/svg" width="1140.7" height="485.6"><path d="M24 465c7 13 23 19 23 19s3-16-4-29-22-19-22-19-4 15 3 29z" fill="#3f3d56"/><path d="M29 460c13 8 18 24 18 24s-16 3-29-5-18-24-18-24 16-2 29 5z" fill="#1976d2"/><path d="M711 243c0 107-64 144-142 144s-142-37-142-144S569 0 569 0s142 136 142 243z" fill="#f2f2f2"/><path fill="#3f3d56" d="M564 371l1-90 61-110-61 96 1-40 42-80-42 69 1-72 45-64-45 53 1-133-4 176v-8l-45-69 44 83-4 81v-2l-53-73 53 81-1 10v1l-11 205h15l1-106 52-81-51 73z"/><path d="M1108 243c0 107-64 144-142 144s-142-37-142-144S966 0 966 0s142 136 142 243z" fill="#f2f2f2"/><path fill="#3f3d56" d="M961 371l1-90 61-110-61 96 1-40 42-80-42 69 1-72 45-64-45 53 1-133-4 176v-8l-45-69 44 83-4 81v-2l-53-73 53 81-1 10v1l-11 205h15l1-106 52-81-51 73z"/><circle cx="109.2" cy="274.5" r="54.3" fill="#ff6584"/><path fill="#3f3d56" d="M40 377l-8-14 75-63h191v18l-69 75-80 16-109-32z"/><path fill="#ccc" d="M331 337v-42h-25v14l-8-9-64 63-10 11-14 53 24 59h123V366l-26-29z"/><path fill="#f2f2f2" d="M32 363h202v123H32z"/><path fill="#3f3d56" d="M164 402h42v37h-42z"/><path fill="#ccc" d="M109 401h38v85h-38z"/><path fill="#3f3d56" d="M67 414v-13H51v13h16zM66 424H51v14h16v-14h-1zM78 401h15v13H78zM78 425h15v13H78zM291 415v-13h-15v13h15zM290 426h-14v13h15v-13h-1zM302 402h16v13h-16zM302 426h16v13h-16zM424 377l-8-14 74-64h192v19l-69 75-80 15-109-31z"/><path fill="#ccc" d="M715 337v-42h-26v13l-7-9-64 64-11 11-13 53 24 59h122V366l-25-29z"/><path fill="#f2f2f2" d="M416 363h202v123H416z"/><path fill="#3f3d56" d="M547 402h43v37h-43z"/><path fill="#ccc" d="M493 401h37v85h-37z"/><path fill="#3f3d56" d="M450 414v-14h-16v14h16zM449 424h-15v14h16v-14h-1zM461 401h16v13h-16zM461 424h16v14h-16zM675 415v-13h-16v13h16zM674 426h-15v13h16v-13h-1zM686 402h16v13h-16zM686 426h16v13h-16zM796 377l-8-14 74-64h192v19l-69 75-80 15-109-31z"/><path fill="#ccc" d="M1087 337v-42h-26v13l-7-9-64 64-11 11-13 53 24 59h122V366l-25-29z"/><path fill="#f2f2f2" d="M788 363h202v123H788z"/><path fill="#3f3d56" d="M919 402h43v37h-43z"/><path fill="#ccc" d="M865 401h37v85h-37z"/><path fill="#3f3d56" d="M822 414v-14h-16v14h16zM821 424h-15v14h16v-14h-1zM833 401h16v13h-16zM833 424h16v14h-16zM1047 415v-13h-16v13h16zM1046 426h-15v13h16v-13h-1zM1058 402h16v13h-16zM1058 426h16v13h-16zM759 407h2v79h-2z"/><path d="M780 417c0 27-20 50-20 50s-19-23-20-50 20-50 20-50 19 22 20 50z" fill="#1976d2"/><path fill="#3f3d56" d="M395 405h2v79h-2z"/><path d="M416 415c0 27-20 50-20 50s-19-23-20-50 20-50 20-50 19 22 20 50z" fill="#1976d2"/><path d="M416 415c0 27-20 50-20 50s-19-23-20-50 20-50 20-50 19 22 20 50z" opacity=".1"/><path fill="#3f3d56" d="M369 405h2v79h-2z"/><path d="M390 415c0 27-20 50-20 50s-19-23-20-50 20-50 20-50 19 22 20 50z" fill="#1976d2"/><path fill="#3f3d56" d="M4 484h1137v2H4z"/></svg>