<svg xmlns="http://www.w3.org/2000/svg" width="1137" height="693.1"><path d="M137 693h-2c22-97 77-185 154-248a444 444 0 01713 246l-2 1a440 440 0 00-431-343 445 445 0 00-432 344z" fill="#3f3d56"/><circle cx="417.1" cy="69.4" r="54.3" fill="#ff6584"/><path d="M183 681c2 6 8 10 8 10s3-6 1-13-8-10-8-10-3 7-1 13z" fill="#3f3d56"/><path d="M186 679c4 5 5 12 5 12s-7 0-12-5-5-11-5-11 7 0 12 4z" fill="#1976d2"/><path d="M312 681c2 6 8 10 8 10s3-6 1-13-8-10-8-10-3 7-1 13z" fill="#3f3d56"/><path d="M315 679c4 5 5 12 5 12s-7 0-12-5-5-11-5-11 7 0 12 4z" fill="#1976d2"/><path fill="#3f3d56" d="M338 182l-21-16L432 64h290v89L534 280l-196-98z"/><path fill="#ccc" d="M775 121V66h-39v13l-14-15-94 102-37 24-57 417 86 86h200V170l-45-49z"/><path fill="#f2f2f2" d="M317 166h311v527H317z"/><path fill="#ccc" d="M438 564h57v129h-57z"/><path fill="#3f3d56" d="M377 601v-21h-25v21h25zM374 617h-22v20h25v-20h-3zM393 580h24v21h-24zM393 617h24v20h-24zM544 601v-21h-25v21h25zM542 617h-23v20h25v-20h-2zM560 580h25v21h-25zM560 617h25v20h-25zM716 192v-20h-25v20h25zM714 209h-23v20h25v-20h-2zM732 172h24v20h-24zM732 209h24v20h-24zM716 307v-21h-25v21h25zM714 323h-23v20h25v-20h-2zM732 286h24v21h-24zM732 323h24v20h-24zM716 421v-20h-25v20h25zM714 437h-23v21h25v-21h-2zM732 401h24v20h-24zM732 437h24v21h-24zM716 535v-20h-25v20h25zM714 552h-23v20h25v-20h-2zM732 515h24v20h-24zM732 552h24v20h-24zM352 192h237v49H352zM352 290h237v49H352zM352 388h237v49H352zM352 486h237v49H352zM0 691h1137v2H0z"/><path fill="#3f3d56" d="M190 460h6v232h-6z"/><path d="M250 489c1 81-56 147-56 147s-58-65-58-146 56-147 56-147 58 65 58 146z" fill="#1976d2"/><path d="M250 489c1 81-56 147-56 147s-58-65-58-146 56-147 56-147 58 65 58 146z" opacity=".1"/><path fill="#3f3d56" d="M114 460h6v232h-6z"/><path d="M174 489c0 81-57 147-57 147s-57-65-58-146 57-147 57-147 58 65 58 146z" fill="#1976d2"/><path d="M946 165l-84 1s44-59 83-37 84 36 84 36h-83zM175 279l-84 1s44-59 83-37 84 36 84 36h-83zM343 41l-84 1s44-59 83-37 84 36 84 36h-83z" fill="#f2f2f2"/><path fill="#3f3d56" d="M1035 460h6v232h-6z"/><path d="M1095 489c0 81-57 147-57 147s-57-65-58-146 57-147 57-147 58 65 58 146z" fill="#1976d2"/><path fill="#3f3d56" d="M825 548h59v-15h33v15h61v63h-61v80h-33v-80h-59l-31-35 31-28z"/></svg>