<svg data-name="Layer 1" xmlns="http://www.w3.org/2000/svg" width="888.5" height="744"><circle cx="249.5" cy="102.7" r="65.6" fill="#ff6584"/><path fill="#3f3d56" d="M633 122h-79V50l79 72z"/><path fill="#e6e6e6" d="M246 120h396v547H246z"/><path fill="#fff" d="M285 158h47v98h-47zM358 158h46v98h-46zM279 297h47v98h-47zM358 297h46v98h-46zM279 426h47v98h-47zM356 424h46v98h-46z"/><path fill="#ccc" d="M423 569h47v98h-47z"/><path fill="#fff" d="M494 424h46v98h-46zM572 424h47v98h-47zM496 296h46v98h-46zM574 296h46v98h-46zM496 158h46v98h-46zM574 158h46v98h-46z"/><path fill="#3f3d56" d="M246 246h396v15H246zM246 362h396v9H246zM246 336h396v8H246zM285 464v66h-8v-66zM332 464v66h-9v-66zM378 464v66h-8v-66zM425 464v66h-9v-66zM471 464v66h-8v-66zM518 464v66h-8v-66zM565 464v66h-9v-66zM611 464v66h-8v-66z"/><path fill="#3f3d56" d="M286 337v67h-8v-67zM332 337v67h-8v-67zM379 337v67h-8v-67zM426 337v67h-9v-67zM472 337v67h-8v-67zM519 337v67h-9v-67zM565 337v67h-8v-67zM612 337v67h-8v-67zM286 189v67h-8v-67zM332 189v67h-8v-67zM379 189v67h-8v-67zM426 189v67h-9v-67zM472 189v67h-8v-67zM519 189v67h-9v-67zM565 189v67h-8v-67zM612 189v67h-8v-67z"/><path fill="#3f3d56" d="M246 213h396v8H246zM246 186h396v8H246zM246 391h396v15H246zM228 113h432v23H228z"/><path fill="#fff" d="M332 590v-21h-25v21h25zM330 607h-23v21h25v-21h-2zM349 569h26v21h-26zM349 607h26v21h-26zM540 590v-21h-26v21h26zM538 607h-24v21h26v-21h-2zM557 569h25v21h-25zM557 607h25v21h-25z"/><path fill="#3f3d56" d="M246 517h396v15H246zM246 491h396v8H246zM246 464h396v8H246z"/><path d="M366 659v-1c-1-12-13-16-19-10a11 11 0 00-15 0c-7-5-19-2-19 10v1a71 71 0 000 8h52a70 70 0 001-8zM572 659v-1c0-12-13-16-19-10a11 11 0 00-15 0c-7-5-18-2-19 10v1a71 71 0 001 8h51a70 70 0 001-8z" fill="#1976d2"/><path fill="#e6e6e6" d="M856 668h-8l3-157h3l2 157z"/><path d="M863 412l13-20a300 300 0 00-13-31l-9 7 7-10-11-21s-26 41-35 85l17 25-19-15a121 121 0 00-1 16c0 51 17 93 38 93s37-42 37-93c0-16-4-33-9-48z" fill="#e6e6e6"/><path fill="#1976d2" d="M828 448H657v152l25-26h146V448z"/><path fill="#e6e6e6" d="M460 718h152v6H460zM736 718h153v6H736zM184 718h152v6H184z"/><path fill="#3f3d56" d="M0 667h888v1H0zM714 696h-18v-3h18z"/><path d="M567 693l4 1h140l1-3a30 30 0 002-16c0-4-2-8-5-10l-6-41h-78l-30 24s-14 0-22 9a22 22 0 00-4 13l-1 5z" fill="#1976d2"/><circle cx="597.9" cy="692.6" r="17.3" fill="#3f3d56"/><circle cx="597.9" cy="692.6" r="9.1" fill="#ccc"/><circle cx="683.3" cy="692.7" r="17.3" fill="#3f3d56"/><circle cx="683.3" cy="692.7" r="9.1" fill="#ccc"/><path fill="#fff" d="M607 645h56v-16h-36l-20 16zM669 645h23v-16h-23v16z"/><path fill="#3f3d56" d="M663 663h-3v-5h3zM618 650v3h-5v-3z"/><path d="M616 651a6 6 0 01-6-6 6 6 0 016-6v12zM568 675a9 9 0 005-18 22 22 0 00-4 13z" fill="#3f3d56"/><path fill="#f2f2f2" d="M652 629l11 16v-8l-6-8h-5zM683 629l9 12v-8l-4-4h-5zM638 629l11 16h5l-11-16h-5z"/><path d="M410 1a9 9 0 01-8 0 9 9 0 00-8 0 9 9 0 01-8 0h-1a9 9 0 00-8 0c-4 2-9 6-9 9a5 5 0 000 1c1 4 14 5 21 3a37 37 0 0017 0c7 2 21 1 21-3a5 5 0 000-1c0-4-5-7-9-9a9 9 0 00-8 0zM778 136a9 9 0 01-8 0 9 9 0 00-8 0 9 9 0 01-8 0h-1a9 9 0 00-8 0c-4 2-9 6-9 10 1 4 14 5 21 3a37 37 0 0017 0c7 2 21 1 21-3s-5-8-9-10a9 9 0 00-8 0zM134 144a9 9 0 01-8 0h-1a9 9 0 00-8 0 9 9 0 01-8 0 9 9 0 00-8 0c-4 2-9 5-9 9a5 5 0 000 1c0 4 14 5 21 3a37 37 0 0017 0c7 2 21 1 21-3a5 5 0 000-1c0-4-5-7-9-9a9 9 0 00-8 0z" fill="#e6e6e6"/><path fill="#3f3d56" d="M92 727h18v3H92z"/><path d="M239 727l-3 1H96l-2-3a30 30 0 01-2-16c1-4 2-8 6-10l6-41h77l30 24s15 0 22 9a22 22 0 015 13v5z" fill="#1976d2"/><circle cx="208.6" cy="726.6" r="17.3" fill="#3f3d56"/><circle cx="208.6" cy="726.6" r="9.1" fill="#ccc"/><circle cx="123.2" cy="726.7" r="17.3" fill="#3f3d56"/><circle cx="123.2" cy="726.7" r="9.1" fill="#ccc"/><path fill="#fff" d="M200 679h-56v-16h35l21 16zM137 679h-22v-16h22v16z"/><path fill="#3f3d56" d="M144 692h3v5h-3zM194 684v3h-6v-3z"/><path d="M190 673a6 6 0 016 6 6 6 0 01-6 6v-12zM238 709a9 9 0 01-5-18 22 22 0 015 13z" fill="#3f3d56"/><path fill="#f2f2f2" d="M155 663l-11 16v-8l6-8h5zM123 663l-8 12v-8l3-4h5zM169 663l-11 16h-5l11-16h5z"/><path fill="#fff" d="M737 538l-22-28 12-10 11 14 35-37 11 11-47 50z"/><path fill="#1976d2" d="M6 480h171v151l-25-25H6V480z"/><path fill="#fff" d="M87 573l-22-28 13-10 10 13 35-36 12 11-48 50z"/></svg>