<svg data-name="Layer 1" xmlns="http://www.w3.org/2000/svg" width="882.3" height="779"><path d="M342 20l4-5a80 80 0 00-4-9l-2 2 2-3-3-5s-7 11-10 23l5 6-5-4a33 33 0 000 5c0 13 4 24 10 24s10-11 10-24a43 43 0 00-2-13z" fill="#e6e6e6"/><path d="M367 32l6-1a80 80 0 004-9h-3l3-1 2-6s-13 3-23 10l-2 8v-7a33 33 0 00-3 3c-10 10-15 21-11 25s15-1 25-11a43 43 0 007-10z" fill="#e6e6e6"/><path d="M369 85h-47V47c15 2 31 2 47 0zM473 115l2-3a52 52 0 00-2-6l-2 1 1-1-2-4a50 50 0 00-6 15l3 4-3-2a21 21 0 000 2c0 9 3 17 6 17s7-8 7-17a28 28 0 00-1-8z" fill="#e6e6e6"/><path d="M489 123l4-1a52 52 0 002-5l-2-1h2l1-4a50 50 0 00-14 6l-1 5-1-4a21 21 0 00-2 2c-6 6-9 14-7 16s10 0 16-7a28 28 0 005-7z" fill="#e6e6e6"/><path d="M490 158h-30v-25a111 111 0 0030 0zM484 232h-27v-22a98 98 0 0027 0zM168 83h364v10H168z" fill="#e6e6e6"/><path fill="#e6e6e6" d="M168 155h364v10H168zM168 227h364v10H168z"/><circle cx="471" cy="197.5" r="20.4" fill="#e6e6e6"/><circle cx="471" cy="197.5" r="16.3" fill="#fff"/><circle cx="471" cy="197.5" r="4.1" fill="#e6e6e6"/><path fill="#e6e6e6" d="M485 197v2h-16v-2z"/><path fill="#e6e6e6" d="M472 200h-2v-17h2zM340 105h13v53h-13z"/><path fill="#ccc" d="M340 114h13v6h-13zM340 141h13v6h-13z"/><path fill="#e6e6e6" d="M319 105h14v53h-14z"/><path fill="#ccc" d="M319 114h14v6h-14zM319 141h14v6h-14z"/><path fill="#e6e6e6" d="M353 111l12-6 23 48-12 6z"/><path fill="#ccc" d="M356 118l13-6 2 6-12 6zM368 143l13-6 2 5-12 6z"/><path fill="#e6e6e6" d="M220 177h13v54h-13z"/><path fill="#ccc" d="M220 186h13v6h-13zM220 213h13v6h-13z"/><path fill="#e6e6e6" d="M199 177h13v54h-13z"/><path fill="#ccc" d="M199 186h13v6h-13zM199 213h13v6h-13z"/><path fill="#e6e6e6" d="M233 183l12-6 23 48-12 6z"/><path fill="#ccc" d="M236 191l12-6 3 5-12 6zM248 215l12-6 3 5-12 6z"/><path fill="#e6e6e6" d="M346 177h13v54h-13z"/><path fill="#ccc" d="M346 186h13v6h-13zM346 213h13v6h-13z"/><path fill="#e6e6e6" d="M325 177h14v54h-14z"/><path fill="#ccc" d="M325 186h14v6h-14zM325 213h14v6h-14z"/><path fill="#e6e6e6" d="M359 183l12-6 24 48-13 6z"/><path fill="#ccc" d="M363 191l12-6 2 5-12 6zM375 215l12-6 2 5-12 6z"/><path fill="#e6e6e6" d="M450 33h54v53h-54z"/><path fill="#ccc" d="M461 43h32v33h-32z"/><path fill="#e6e6e6" d="M470 54l7 12 7 12h-28l7-12 7-12z"/><path fill="#e6e6e6" d="M482 56l7 12 6 12h-27l7-12 7-12z"/><circle cx="486.6" cy="49" r="3.9" fill="#e6e6e6"/><path fill="#e6e6e6" d="M179 33h54v53h-54z"/><path fill="#ccc" d="M190 43h32v33h-32z"/><path fill="#e6e6e6" d="M199 54l7 12 7 12h-27l6-12 7-12z"/><path fill="#e6e6e6" d="M211 56l7 12 7 12h-28l7-12 7-12z"/><circle cx="215.8" cy="49" r="3.9" fill="#e6e6e6"/><path d="M71 398l4-6a80 80 0 00-4-8l-2 2 2-3-3-5s-7 11-9 22l4 7-5-4a33 33 0 000 4c0 14 4 25 10 25s10-11 10-25a43 43 0 00-2-13z" fill="#1976d2"/><path d="M96 410l6-2a80 80 0 004-8h-3l3-1 2-6s-13 3-23 9l-2 8v-6a33 33 0 00-3 3c-10 10-15 21-11 25s15-1 25-11a43 43 0 007-11z" fill="#1976d2"/><path d="M98 463H51v-38c15 2 31 2 47 0z" fill="#3f3d56"/><path fill="#e6e6e6" d="M501 475h196v254H501zM93 488h10v241H93z"/><path fill="#e6e6e6" d="M0 458h697v20H0zM88 478h20v21H88z"/><path fill="#3f3d56" d="M614 490l-1 4h-29l-1-4h-73v47h177v-47h-73zM614 549l-1 4h-29l-1-4h-73v47h177v-47h-73zM614 608l-1 5h-29l-1-5h-73v47h177v-47h-73zM614 667l-1 5h-29l-1-5h-73v47h177v-47h-73z"/><path fill="#e6e6e6" d="M378 455h-60l2-27h56l2 27z"/><path fill="#e6e6e6" d="M315 452h67v6h-67z"/><path d="M463 258H233a6 6 0 00-6 6v140h242V264a6 6 0 00-6-6z" fill="#3f3d56"/><path d="M227 404v23a6 6 0 006 6h230a6 6 0 006-6v-23z" fill="#e6e6e6"/><path fill="#fff" d="M239 270h218v123H239z"/><circle cx="348.3" cy="418" r="6.1" fill="#3f3d56"/><path d="M865 727h-72v-59c22 4 47 3 72 0z" fill="#3f3d56"/><path fill="#3f3d56" d="M831 673h-6l2-119h2l2 119zM859 674h-6l2-119h2l2 119zM807 674h-6l2-119h2l2 119z"/><path d="M837 478l9-16a229 229 0 00-10-23l-6 5 5-8-9-15s-19 31-26 64l13 19-14-11a92 92 0 00-1 12c0 39 13 70 28 70s29-31 29-70c0-13-3-25-7-37z" fill="#e6e6e6"/><path d="M864 480l10-16a229 229 0 00-10-23l-7 5 5-8-8-15s-20 31-27 64l13 19-14-11a92 92 0 00-1 12c0 39 13 70 29 70s28-31 28-70c0-13-2-25-6-37z" fill="#1976d2"/><path d="M812 480l10-16a229 229 0 00-10-23l-7 5 6-8-9-15s-20 31-26 64l12 19-14-11a92 92 0 00-1 12c0 39 13 70 29 70s28-31 28-70c0-13-2-25-6-37z" fill="#1976d2"/><path fill="#3f3d56" d="M310 305h59v3h-59z"/><path fill="#1976d2" d="M310 317h91v4h-91zM310 329h74v3h-74z"/><path fill="#3f3d56" d="M310 340h43v4h-43zM310 352h65v3h-65zM283 304h7v7h-7z"/><path fill="#1976d2" d="M283 315h7v7h-7zM283 327h7v7h-7z"/><path fill="#3f3d56" d="M283 338h7v8h-7zM283 350h7v7h-7z"/><path d="M447 298h-31a108 108 0 010-36h31a66 66 0 000 36z" fill="#1976d2"/><path fill="#3f3d56" d="M144 750l-5-1 47-139 7 3-49 137zM322 750l5-1-47-139-6 3 48 137zM224 779h5l1-162h-7l1 162z"/><path d="M132 529l14 56a45 45 0 0033 33 238 238 0 00118-1l21-5c12-3 22-14 22-26a26 26 0 00-2-13v-1a34 34 0 00-30-19l-22-1-80-35s-28-14-51-16c-15-1-26 13-23 28z" fill="#1976d2"/><path fill="#e6e6e6" d="M543 351h80v108h-80z"/><path fill="#fff" d="M552 364h62v83h-62z"/><path fill="#3f3d56" d="M577 386h29v3h-29zM560 384h7v7h-7zM577 400h29v3h-29zM560 398h7v7h-7zM577 414h29v3h-29zM560 412h7v7h-7z"/><rect x="579.9" y="354.4" width="6.1" height="6.1" rx="3.1" fill="#3f3d56"/></svg>