<svg xmlns="http://www.w3.org/2000/svg" width="22" height="22" fill="none" viewBox="0 0 22 22">
<path fill="#230B34" d="M6.7 12.4a1.17 1.17 0 1 1 0-2.35 1.17 1.17 0 0 1 0 2.34ZM11.24 12.4a1.17 1.17 0 1 1 0-2.35 1.17 1.17 0 0 1 0 2.34ZM15.78 12.4a1.17 1.17 0 1 1 0-2.35 1.17 1.17 0 0 1 0 2.34Z"/>
<path stroke="#2B2D37" stroke-linecap="round" stroke-linejoin="round" stroke-width="1.5" d="M11.02 1A10 10 0 0 0 1 11.02c0 1.68.49 3.4 1.35 5 .16.25.18.58.07.9l-.67 2.24c-.15.54.31.94.82.78l2.02-.6c.55-.18.98.05 1.49.36A10 10 0 1 0 11.02 1Z" clip-rule="evenodd"/>
</svg>