<svg xmlns="http://www.w3.org/2000/svg" width="20" height="22" fill="none" viewBox="0 0 20 22">
<path stroke="#2B2D37" stroke-linecap="round" stroke-linejoin="round" stroke-width="1.5" d="m18.8 6.6-.6-1a2 2 0 0 0-2.6-.8v0a1.9 1.9 0 0 1-2.9-1.6v0a2 2 0 0 0-1.9-2H9.5a1.9 1.9 0 0 0-1.9 2v0A2 2 0 0 1 5.7 5l-.9-.3v0a2 2 0 0 0-2.6.7l-.7 1.1a2 2 0 0 0 .7 2.6v0a2 2 0 0 1 0 3.3v0c-.9.6-1.2 1.7-.7 2.6v0l.7 1.1a2 2 0 0 0 2.6.8v0a1.9 1.9 0 0 1 2.8 1.6v0c0 1 .9 1.9 2 1.9h1.2c1 0 2-.9 2-1.9v0a1.9 1.9 0 0 1 1.8-2l1 .3v0c.9.6 2 .3 2.5-.7v0l.7-1a1.9 1.9 0 0 0-.7-2.7v0a1.9 1.9 0 0 1 0-3.3v0a2 2 0 0 0 .7-2.6v0Z" clip-rule="evenodd"/>
<circle cx="10.2" cy="10.9" r="2.6" stroke="#2B2D37" stroke-linecap="round" stroke-linejoin="round" stroke-width="1.5"/>
</svg>