<svg xmlns="http://www.w3.org/2000/svg" width="18" height="18" viewBox="0 0 18 18" fill="none"><path stroke="#1F91FF" stroke-linecap="round" stroke-linejoin="round" stroke-width="1.5" d="M12.4 1H15c1.1 0 2 .9 2 2v2.6c0 1.1-.9 2-2 2h-2.6c-1 0-2-.9-2-2V3c0-1.1 1-2 2-2ZM3 1h2.6c1 0 2 .9 2 2v2.6c0 1.1-1 2-2 2H3c-1.1 0-2-.9-2-2V3c0-1.1.9-2 2-2ZM3 10.4h2.6c1 0 2 .9 2 2V15c0 1.1-1 2-2 2H3c-1.1 0-2-.9-2-2v-2.6c0-1.1.9-2 2-2ZM12.4 10.4H15c1.1 0 2 .9 2 2V15c0 1.1-.9 2-2 2h-2.6c-1 0-2-.9-2-2v-2.6c0-1.1 1-2 2-2Z" clip-rule="evenodd"/></svg>