<svg xmlns="http://www.w3.org/2000/svg" width="17" height="22" fill="none" viewBox="0 0 17 22">
<circle cx="8.58" cy="6.28" r="4.78" stroke="#2B2D37" stroke-linecap="round" stroke-linejoin="round" stroke-width="1.5"/>
<path stroke="#2B2D37" stroke-linecap="round" stroke-linejoin="round" stroke-width="1.5" d="M1 17.7c0-.33.07-.67.22-.97.46-.91 1.75-1.4 2.82-1.62a25.04 25.04 0 0 1 9.07 0c1.07.22 2.36.66 2.82 1.62.3.62.3 1.33 0 1.95-.46.96-1.75 1.4-2.82 1.61-.77.17-1.55.29-2.34.34-1.2.1-2.38.12-3.57.06-.28 0-.54 0-.82-.06-.78-.05-1.56-.17-2.33-.34-1.08-.2-2.36-.65-2.83-1.6-.15-.32-.22-.65-.22-.99Z" clip-rule="evenodd"/>
</svg>