<svg xmlns="http://www.w3.org/2000/svg" width="26" height="30" fill="none" viewBox="0 0 26 30">
<path stroke-linecap="round" stroke-linejoin="round" stroke-width="1.8" d="M1.7 17.4V17c0-.9.3-1.7.8-2.4.8-.9 1.3-2 1.6-3.1V8.9c.4-4.3 4.7-7.2 8.8-7.2h.2c4.1 0 8.4 3 8.8 7.2v2.7c.3 1.1.8 2.2 1.6 3 .5.8.8 1.6.8 2.5v.3c0 1.1-.3 2.3-1 3.2a6 6 0 0 1-3.9 1.8c-4.3.4-8.6.4-12.8 0a6 6 0 0 1-3.8-1.8c-.8-1-1.2-2-1.1-3.2Z" clip-rule="evenodd"/>
<path stroke-linecap="round" stroke-linejoin="round" stroke-width="1.8" d="M9.7 26.8a4 4 0 0 0 5.8.7l.7-.7"/>
</svg>