<svg xmlns="http://www.w3.org/2000/svg" width="711" height="670"><path fill="#e6e6e6" d="M516 380v185l31 50 3 4h122l2-239H516z"/><path opacity=".1" d="M516 380v185l31 50 2-235h-33z"/><path fill="#e6e6e6" d="M222 375v185l-31 51-3 3H66l-2-239h158z"/><path opacity=".1" d="M222 375v185l-31 51-2-236h33z"/><path fill="#e6e6e6" d="M711 371v11H48v-16l61-32h548l54 37z"/><path opacity=".1" d="M711 371v11H48v-16l663 5z"/><path fill="#3f3d56" d="M143 427h-30l-12-9h55l-13 9zM143 463h-30l-12-9h55l-13 9zM143 513h-30l-12-8h55l-13 8zM143 564h-30l-12-9h55l-13 9zM595 432h30l12-9h-55l13 9zM595 468h30l12-9h-55l13 9zM595 518h30l12-8h-55l13 8zM595 569h30l12-9h-55l13 9zM615 120H366a9 9 0 00-9 10v168a9 9 0 009 9h95l-4 23s-20 11-6 11h82s13 0-8-12l-3-22h93a9 9 0 0010-9V130a9 9 0 00-10-10z"/><path fill="#f2f2f2" d="M366 130h250v140H366z"/><circle cx="490.8" cy="126" r="1.6" fill="#f2f2f2"/><circle cx="490.8" cy="294.3" r="6" fill="#f2f2f2"/><path fill="#3f3d56" d="M481 358v3H311v-3l5-11h162l3 11zM547 355l-4 4c-10 5-29-1-29-1s-15-3-15-10a12 12 0 011 0c4-2 18-8 41 0a10 10 0 015 3 5 5 0 011 4z"/><path d="M547 355c-12 4-22 5-33-3a23 23 0 00-14-4c4-2 18-8 41 0a10 10 0 015 3 5 5 0 011 4z" opacity=".1"/><ellipse cx="532.4" cy="351" rx="4.1" ry="1.3" fill="#f2f2f2"/><path opacity=".1" d="M481 358v3H311v-3h170z"/><g fill="#1976d2"><path d="M437 176h30v8h-30z"/><path d="M560 176h10v8h-10z"/><path d="M581 176h10v8h-10z"/><path d="M478 176h71v8h-71z"/><path d="M400 223h30v7h-30z"/><path d="M522 223h11v7h-11z"/><path d="M543 223h11v7h-11z"/><path d="M440 223h71v7h-71z"/><path d="M523 192h30v8h-30z"/><path d="M563 192h30v8h-30z"/><path d="M400 192h10v8h-10z"/><path d="M421 192h10v8h-10z"/><path d="M442 192h71v8h-71z"/><path d="M461 208h30v7h-30z"/><path d="M421 208h30v7h-30z"/><path d="M400 208h10v7h-10z"/><path d="M582 208h11v7h-11z"/><path d="M501 208h71v7h-71z"/></g></svg>